<svg version="1.2" xmlns="http://www.w3.org/2000/svg" viewBox="0 0 1920 1080" width="1920" height="1080">
	<title>Logo-Kubii_2023_FULL Dark Blue (sans_fond)</title>
	<defs>
		<linearGradient id="g1" x1="1658.8" y1="408.2" x2="1658.8" y2="322.1" gradientUnits="userSpaceOnUse">
			<stop offset="0" stop-color="#303441"/>
			<stop offset="1" stop-color="#303441"/>
		</linearGradient>
		<linearGradient id="g2" x1="1769.4" y1="408.2" x2="1769.4" y2="322.1" gradientUnits="userSpaceOnUse">
			<stop offset="0" stop-color="#303441"/>
			<stop offset="1" stop-color="#303441"/>
		</linearGradient>
		<linearGradient id="g3" x1="468.5" y1="885.6" x2="468.5" y2="193.7" gradientUnits="userSpaceOnUse">
			<stop offset="0" stop-color="#303441"/>
			<stop offset="1" stop-color="#303441"/>
		</linearGradient>
	</defs>
	<style>
		.s0 { fill: #303441 } 
		.s1 { fill: url(#g1) } 
		.s2 { fill: url(#g2) } 
		.s3 { fill: url(#g3) } 
	</style>
	<g id="Logo couleur">
		<path id="&lt;Path&gt;" class="s0" d="m1125.9 430.1h-66.5l-67.5 140.5c-1.1 2.4-3.6 4-6.3 4-3.9 0-7-3.2-7-7v-137.6h-57.9v325.7h57.9v-130.5c0-3.8 3.1-7 7-7 2.7 0 5.2 1.6 6.3 4.1l61.9 133.4h67.6l-78.3-159.3z"/>
		<path id="&lt;Path&gt;" class="s0" d="m1630.9 430.1h55.7v325.6h-55.7z"/>
		<path id="&lt;Path&gt;" class="s0" d="m1741.5 430.1h55.8v325.6h-55.8z"/>
		<path id="&lt;Path&gt;" class="s1" d="m1686.7 378.6c0 16.4-12.5 29.6-28 29.6-15.4 0-27.9-13.2-27.9-29.6v-26.9c0-16.3 12.5-29.6 27.9-29.6 15.5 0 28 13.3 28 29.6z"/>
		<path id="&lt;Path&gt;" class="s2" d="m1797.3 378.6c0 16.4-12.5 29.6-27.9 29.6-15.5 0-28-13.2-28-29.6v-26.9c0-16.3 12.5-29.6 28-29.6 15.4 0 27.9 13.3 27.9 29.6z"/>
		<path id="&lt;Path&gt;" class="s0" d="m1304.6 652.7v-222.6h56.7v251.6c0 0 0 73.8-97.6 73.8-97.5 0-97.5-73.2-97.5-73.2v-252.3h56.7v222.7c0 0-3.6 47.4 40.8 47.4 44.5 0 40.9-47.4 40.9-47.4z"/>
		<path id="&lt;Compound Path&gt;" fill-rule="evenodd" class="s0" d="m1589.3 656.5c0 104-79.8 99-79.8 99l-110.3 0.2v-325.6c17.3 0 34 0.1 49.6 0 74.9-0.4 134.6 16.5 134.6 82.5 0 66.1-45.8 70.2-45.8 70.2 0 0 51.7-1.7 51.7 73.7zm-135.3-91.8c0 0 72.4 10.5 72.4-45.7 0-56.1-71.9-45.5-72.4-45zm75.7 96.6c0-65.2-74.3-51.1-74.3-51.1v90.8c0 0 74.3 20 74.3-39.7z"/>
		<g id="&lt;Group&gt;">
			<path id="&lt;Compound Path&gt;" fill-rule="evenodd" class="s3" d="m814.5 291.3v496.7c0 34.6-18.2 65.1-45.5 82.5v-142.4c8-2 14-9.3 14-18 0-10.2-8.3-18.5-18.5-18.5-10.2 0-18.5 8.3-18.5 18.5 0 8.7 6 16 14 18v147.4c-11 5.5-23.2 8.9-36 9.9v-112.3c8-2 14-9.3 14-18 0-10.2-8.3-18.5-18.5-18.5-10.2 0-18.5 8.3-18.5 18.5 0 8.7 6 16 14 18v112.5h-38v-67.5c8-2 14-9.3 14-18 0-10.2-8.3-18.5-18.5-18.5-10.2 0-18.5 8.3-18.5 18.5 0 8.7 6 16 14 18v67.5h-447.9c-41.5 0-77.1-26.2-91.2-63h104.7c2 8.1 9.2 14 17.9 14 10.2 0 18.5-8.2 18.5-18.5 0-10.2-8.3-18.5-18.5-18.5-8.7 0-15.9 6-17.9 14h-107.6c-1.7-6.1-2.8-12.4-3.2-19h55.2l9-9 36.1-36h10.5c2 8.1 9.2 14 17.9 14 10.2 0 18.5-8.2 18.5-18.5 0-10.2-8.3-18.5-18.5-18.5-8.7 0-15.9 6-17.9 14h-12.9l-45.6 45h-52.6v-494.3c0-53.7 44-97.6 97.6-97.6h492.9v166.5c-8 2-14 9.3-14 17.9 0 10.3 8.3 18.5 18.5 18.5 10.2 0 18.5-8.2 18.5-18.5 0-8.6-6-15.9-14-17.9v-166.4c51.3 2.7 92.5 45.5 92.5 97.5zm-324 66.1l179-97.9c0 0-142.6 95.8-169.5 110.6 78.9 22.2 149.1-31.1 169.5-110.6-190.5-48.1-179 97.9-179 97.9zm-34.7 17.7l-79.2-137.8c0 0 75.1 110.6 86.3 131.3 17.5-60.2-25.5-115.3-86.3-131.3-38 145.7 79.2 137.8 79.2 137.8zm251.9 161.3c0-50.6-41-91.6-91.5-91.6-30.6 0-57.7 15.1-74.4 38.2 13.7-24 38-41.1 66.4-45.2-14.4-26.1-42.1-43.7-73.9-43.7-27.6 0-52.1 13.2-67.5 33.7-15.3-20.5-39.8-33.7-67.4-33.7-30.7 0-57.6 16.4-72.4 41 34.2 2.2 63.2 23.2 77 52.8 15.4-17.3 37.9-28.1 62.8-28.1 46.6 0 84.3 37.7 84.3 84.3q0 1.6 0 3.2c-1.7-45.1-38.8-81.2-84.3-81.2-45.5 0-82.5 36.1-84.2 81.2q-0.1-1.6-0.1-3.2c0-20.2 7.1-38.8 19-53.3-15.5-28.7-45.8-48.1-80.6-48.1-50.6 0-91.6 41-91.6 91.5 0 39.9 25.5 73.8 61 86.4-15.2 15.8-24.5 37.2-24.5 60.9 0 48.5 39.4 87.9 88 87.9 47 0 85.4-36.9 87.8-83.3q0.1 2.3 0.1 4.6c0 39.7-26.3 73.3-62.5 84.2 6.9 38.1 43.5 67.1 87.6 67.1 47.5 0 86.3-33.7 88.8-76 7.7 2.2 15.9 3.4 24.3 3.4 48.6 0 88-39.4 88-87.9 0-19.3-6.2-37.1-16.7-51.5-8 2.3-16.5 3.5-25.3 3.5-18.6 0-35.8-5.5-50.3-15 12.3 6.1 26 9.5 40.6 9.5 50.5 0 91.5-41 91.5-91.6z"/>
		</g>
	</g>
</svg>